<svg width="1920" height="1080" viewBox="0 0 1920 1080" fill="none" xmlns="http://www.w3.org/2000/svg">
<rect width="1920" height="1080" fill="#2D353B"/>
<path fill-rule="evenodd" clip-rule="evenodd" d="M1060.68 588L1160 688.75L1110 740L1008.13 640.6C982.431 656.589 952.763 665.043 922.5 665C832.75 665 760 592.075 760 502.5C760 412.75 832.925 340 922.5 340C1012.25 340 1085 412.925 1085 502.5C1085.05 532.714 1076.62 562.335 1060.68 588ZM809.925 501.3C809.925 563.3 860.275 613.8 922.425 613.8C984.425 613.8 1034.92 563.425 1034.92 501.3C1034.92 439.3 984.55 388.8 922.425 388.8C860.425 388.8 809.925 439.15 809.925 501.3Z" fill="#D9D9D9"/>
</svg>
