<svg width="1920" height="1080" viewBox="0 0 1920 1080" fill="none" xmlns="http://www.w3.org/2000/svg">
<rect width="1920" height="1080" fill="#1E1E1F"/>
<path d="M230.904 539.719V423.703C230.904 423.703 254.879 423.703 302.828 423.703C314.449 423.703 324.41 429.416 332.711 440.842C341.109 452.17 345.309 465.793 345.309 481.711C345.309 497.727 341.109 511.398 332.711 522.727C324.41 534.055 314.449 539.719 302.828 539.719H230.904ZM241.451 529.172H302.828C311.52 529.172 318.941 524.533 325.094 515.256C331.344 505.979 334.469 494.797 334.469 481.711C334.469 468.527 331.344 457.346 325.094 448.166C318.941 438.889 311.52 434.25 302.828 434.25H241.451V529.172ZM220.357 550.266H302.828C317.379 550.266 329.879 543.576 340.328 530.197C350.875 516.721 356.148 500.559 356.148 481.711C356.148 469.309 353.707 457.834 348.824 447.287C344.039 436.74 337.545 428.439 329.342 422.385C321.236 416.232 312.398 413.156 302.828 413.156H220.357V550.266ZM209.811 560.812V402.609H302.828C314.254 402.609 324.898 406.125 334.762 413.156C344.625 420.188 352.438 429.807 358.199 442.014C364.059 454.123 366.988 467.355 366.988 481.711C366.988 495.969 364.059 509.201 358.199 521.408C352.438 533.615 344.625 543.234 334.762 550.266C324.898 557.297 314.254 560.812 302.828 560.812H209.811ZM199.264 571.359H302.828C316.207 571.359 328.609 567.355 340.035 559.348C351.559 551.34 360.738 540.451 367.574 526.682C374.41 512.912 377.828 497.922 377.828 481.711C377.828 465.598 374.41 450.656 367.574 436.887C360.738 423.02 351.559 412.082 340.035 404.074C328.512 396.066 316.109 392.062 302.828 392.062H199.264V571.359ZM188.717 581.906V381.516H302.828C318.062 381.516 332.271 386.008 345.455 394.992C358.639 403.879 369.137 416.037 376.949 431.467C384.762 446.896 388.668 463.645 388.668 481.711C388.668 499.777 384.762 516.525 376.949 531.955C369.137 547.385 358.639 559.592 345.455 568.576C332.271 577.463 318.062 581.906 302.828 581.906H188.717ZM178.17 592.453H302.828C315.621 592.453 327.975 589.523 339.889 583.664C351.803 577.805 362.105 569.943 370.797 560.08C379.488 550.217 386.422 538.449 391.598 524.777C396.871 511.008 399.508 496.652 399.508 481.711C399.508 466.77 396.871 452.463 391.598 438.791C386.422 425.119 379.488 413.352 370.797 403.488C362.105 393.527 351.803 385.617 339.889 379.758C327.975 373.898 315.621 370.969 302.828 370.969H178.17V592.453ZM302.828 603H167.623V360.422H302.828C321.871 360.422 339.645 365.842 356.148 376.682C372.652 387.521 385.787 402.268 395.553 420.92C405.416 439.572 410.348 459.836 410.348 481.711C410.348 498.117 407.418 513.84 401.559 528.879C395.797 543.82 388.082 556.711 378.414 567.551C368.746 578.391 357.271 587.033 343.99 593.479C330.807 599.826 317.086 603 302.828 603ZM507.467 603H496.92V360.422H613.668V370.969H507.467V381.516H613.668V392.062H507.467V402.609H613.668V413.156H507.467V465.891H608.688V476.438H507.467V486.984H608.688V497.531H507.467V508.078H608.688V518.625H507.467V603ZM486.373 603H475.826V360.422H486.373V603ZM465.279 603H454.732V360.422H465.279V603ZM444.186 603H433.639V360.422H444.186V603Z" fill="white"/>
<path d="M164.5 759V689H194C201.467 689 208.033 690.467 213.7 693.4C219.433 696.333 223.867 700.433 227 705.7C230.2 710.967 231.8 717.067 231.8 724C231.8 730.933 230.2 737.033 227 742.3C223.867 747.567 219.433 751.667 213.7 754.6C208.033 757.533 201.467 759 194 759H164.5ZM174.5 750.3H193.4C199.2 750.3 204.2 749.2 208.4 747C212.667 744.8 215.967 741.733 218.3 737.8C220.633 733.8 221.8 729.2 221.8 724C221.8 718.733 220.633 714.133 218.3 710.2C215.967 706.267 212.667 703.2 208.4 701C204.2 698.8 199.2 697.7 193.4 697.7H174.5V750.3ZM245.717 759V706H255.317V759H245.717ZM250.517 695.8C248.651 695.8 247.084 695.2 245.817 694C244.617 692.8 244.017 691.333 244.017 689.6C244.017 687.8 244.617 686.3 245.817 685.1C247.084 683.9 248.651 683.3 250.517 683.3C252.384 683.3 253.917 683.9 255.117 685.1C256.384 686.233 257.017 687.667 257.017 689.4C257.017 691.2 256.417 692.733 255.217 694C254.017 695.2 252.451 695.8 250.517 695.8ZM296.847 779C291.98 779 287.247 778.3 282.647 776.9C278.114 775.567 274.414 773.633 271.547 771.1L276.147 763.7C278.614 765.833 281.647 767.5 285.247 768.7C288.847 769.967 292.614 770.6 296.547 770.6C302.814 770.6 307.414 769.133 310.347 766.2C313.28 763.267 314.747 758.8 314.747 752.8V741.6L315.747 731.1L315.247 720.5V706H324.347V751.8C324.347 761.133 322.014 768 317.347 772.4C312.68 776.8 305.847 779 296.847 779ZM295.647 756.8C290.514 756.8 285.914 755.733 281.847 753.6C277.847 751.4 274.647 748.367 272.247 744.5C269.914 740.633 268.747 736.167 268.747 731.1C268.747 725.967 269.914 721.5 272.247 717.7C274.647 713.833 277.847 710.833 281.847 708.7C285.914 706.567 290.514 705.5 295.647 705.5C300.18 705.5 304.314 706.433 308.047 708.3C311.78 710.1 314.747 712.9 316.947 716.7C319.214 720.5 320.347 725.3 320.347 731.1C320.347 736.833 319.214 741.6 316.947 745.4C314.747 749.2 311.78 752.067 308.047 754C304.314 755.867 300.18 756.8 295.647 756.8ZM296.747 748.4C300.28 748.4 303.414 747.667 306.147 746.2C308.88 744.733 311.014 742.7 312.547 740.1C314.147 737.5 314.947 734.5 314.947 731.1C314.947 727.7 314.147 724.7 312.547 722.1C311.014 719.5 308.88 717.5 306.147 716.1C303.414 714.633 300.28 713.9 296.747 713.9C293.214 713.9 290.047 714.633 287.247 716.1C284.514 717.5 282.347 719.5 280.747 722.1C279.214 724.7 278.447 727.7 278.447 731.1C278.447 734.5 279.214 737.5 280.747 740.1C282.347 742.7 284.514 744.733 287.247 746.2C290.047 747.667 293.214 748.4 296.747 748.4ZM342.69 759V706H352.29V759H342.69ZM347.49 695.8C345.623 695.8 344.057 695.2 342.79 694C341.59 692.8 340.99 691.333 340.99 689.6C340.99 687.8 341.59 686.3 342.79 685.1C344.057 683.9 345.623 683.3 347.49 683.3C349.357 683.3 350.89 683.9 352.09 685.1C353.357 686.233 353.99 687.667 353.99 689.4C353.99 691.2 353.39 692.733 352.19 694C350.99 695.2 349.423 695.8 347.49 695.8ZM388.82 759.6C383.486 759.6 379.353 758.167 376.42 755.3C373.486 752.433 372.02 748.333 372.02 743V694.4H381.62V742.6C381.62 745.467 382.32 747.667 383.72 749.2C385.186 750.733 387.253 751.5 389.92 751.5C392.92 751.5 395.42 750.667 397.42 749L400.42 755.9C398.953 757.167 397.186 758.1 395.12 758.7C393.12 759.3 391.02 759.6 388.82 759.6ZM363.02 713.9V706H396.82V713.9H363.02ZM444.926 759V747.8L444.426 745.7V726.6C444.426 722.533 443.226 719.4 440.826 717.2C438.492 714.933 434.959 713.8 430.226 713.8C427.092 713.8 424.026 714.333 421.026 715.4C418.026 716.4 415.492 717.767 413.426 719.5L409.426 712.3C412.159 710.1 415.426 708.433 419.226 707.3C423.092 706.1 427.126 705.5 431.326 705.5C438.592 705.5 444.192 707.267 448.126 710.8C452.059 714.333 454.026 719.733 454.026 727V759H444.926ZM427.526 759.6C423.592 759.6 420.126 758.933 417.126 757.6C414.192 756.267 411.926 754.433 410.326 752.1C408.726 749.7 407.926 747 407.926 744C407.926 741.133 408.592 738.533 409.926 736.2C411.326 733.867 413.559 732 416.626 730.6C419.759 729.2 423.959 728.5 429.226 728.5H446.026V735.4H429.626C424.826 735.4 421.592 736.2 419.926 737.8C418.259 739.4 417.426 741.333 417.426 743.6C417.426 746.2 418.459 748.3 420.526 749.9C422.592 751.433 425.459 752.2 429.126 752.2C432.726 752.2 435.859 751.4 438.526 749.8C441.259 748.2 443.226 745.867 444.426 742.8L446.326 749.4C445.059 752.533 442.826 755.033 439.626 756.9C436.426 758.7 432.392 759.6 427.526 759.6ZM471.791 759V684.8H481.391V759H471.791ZM536.977 722.1H573.077V730.7H536.977V722.1ZM537.977 759H527.977V689H577.377V697.7H537.977V759ZM611.093 759.6C605.76 759.6 601.026 758.433 596.893 756.1C592.76 753.767 589.493 750.567 587.093 746.5C584.693 742.367 583.493 737.7 583.493 732.5C583.493 727.233 584.693 722.567 587.093 718.5C589.493 714.433 592.76 711.267 596.893 709C601.026 706.667 605.76 705.5 611.093 705.5C616.36 705.5 621.06 706.667 625.193 709C629.393 711.267 632.66 714.433 634.993 718.5C637.393 722.5 638.593 727.167 638.593 732.5C638.593 737.767 637.393 742.433 634.993 746.5C632.66 750.567 629.393 753.767 625.193 756.1C621.06 758.433 616.36 759.6 611.093 759.6ZM611.093 751.2C614.493 751.2 617.526 750.433 620.193 748.9C622.926 747.367 625.06 745.2 626.593 742.4C628.126 739.533 628.893 736.233 628.893 732.5C628.893 728.7 628.126 725.433 626.593 722.7C625.06 719.9 622.926 717.733 620.193 716.2C617.526 714.667 614.493 713.9 611.093 713.9C607.693 713.9 604.66 714.667 601.993 716.2C599.326 717.733 597.193 719.9 595.593 722.7C593.993 725.433 593.193 728.7 593.193 732.5C593.193 736.233 593.993 739.533 595.593 742.4C597.193 745.2 599.326 747.367 601.993 748.9C604.66 750.433 607.693 751.2 611.093 751.2ZM651.87 759V706H661.07V720.4L660.17 716.8C661.636 713.133 664.103 710.333 667.57 708.4C671.036 706.467 675.303 705.5 680.37 705.5V714.8C679.97 714.733 679.57 714.7 679.17 714.7C678.836 714.7 678.503 714.7 678.17 714.7C673.036 714.7 668.97 716.233 665.97 719.3C662.97 722.367 661.47 726.8 661.47 732.6V759H651.87ZM715.313 759.6C709.647 759.6 704.647 758.433 700.313 756.1C696.047 753.767 692.713 750.567 690.313 746.5C687.98 742.433 686.813 737.767 686.813 732.5C686.813 727.233 687.947 722.567 690.213 718.5C692.547 714.433 695.713 711.267 699.713 709C703.78 706.667 708.347 705.5 713.413 705.5C718.547 705.5 723.08 706.633 727.013 708.9C730.947 711.167 734.013 714.367 736.213 718.5C738.48 722.567 739.613 727.333 739.613 732.8C739.613 733.2 739.58 733.667 739.513 734.2C739.513 734.733 739.48 735.233 739.413 735.7H694.313V728.8H734.413L730.513 731.2C730.58 727.8 729.88 724.767 728.413 722.1C726.947 719.433 724.913 717.367 722.313 715.9C719.78 714.367 716.813 713.6 713.413 713.6C710.08 713.6 707.113 714.367 704.513 715.9C701.913 717.367 699.88 719.467 698.413 722.2C696.947 724.867 696.213 727.933 696.213 731.4V733C696.213 736.533 697.013 739.7 698.613 742.5C700.28 745.233 702.58 747.367 705.513 748.9C708.447 750.433 711.813 751.2 715.613 751.2C718.747 751.2 721.58 750.667 724.113 749.6C726.713 748.533 728.98 746.933 730.913 744.8L736.213 751C733.813 753.8 730.813 755.933 727.213 757.4C723.68 758.867 719.713 759.6 715.313 759.6ZM781.244 705.5C785.577 705.5 789.377 706.333 792.644 708C795.977 709.667 798.577 712.2 800.444 715.6C802.31 719 803.244 723.3 803.244 728.5V759H793.644V729.6C793.644 724.467 792.377 720.6 789.844 718C787.377 715.4 783.877 714.1 779.344 714.1C775.944 714.1 772.977 714.767 770.444 716.1C767.91 717.433 765.944 719.4 764.544 722C763.21 724.6 762.544 727.833 762.544 731.7V759H752.944V706H762.144V720.3L760.644 716.5C762.377 713.033 765.044 710.333 768.644 708.4C772.244 706.467 776.444 705.5 781.244 705.5ZM836.21 759.6C831.81 759.6 827.61 759 823.61 757.8C819.677 756.6 816.577 755.133 814.31 753.4L818.31 745.8C820.577 747.333 823.377 748.633 826.71 749.7C830.043 750.767 833.443 751.3 836.91 751.3C841.377 751.3 844.577 750.667 846.51 749.4C848.51 748.133 849.51 746.367 849.51 744.1C849.51 742.433 848.91 741.133 847.71 740.2C846.51 739.267 844.91 738.567 842.91 738.1C840.977 737.633 838.81 737.233 836.41 736.9C834.01 736.5 831.61 736.033 829.21 735.5C826.81 734.9 824.61 734.1 822.61 733.1C820.61 732.033 819.01 730.6 817.81 728.8C816.61 726.933 816.01 724.467 816.01 721.4C816.01 718.2 816.91 715.4 818.71 713C820.51 710.6 823.043 708.767 826.31 707.5C829.643 706.167 833.577 705.5 838.11 705.5C841.577 705.5 845.077 705.933 848.61 706.8C852.21 707.6 855.143 708.767 857.41 710.3L853.31 717.9C850.91 716.3 848.41 715.2 845.81 714.6C843.21 714 840.61 713.7 838.01 713.7C833.81 713.7 830.677 714.4 828.61 715.8C826.543 717.133 825.51 718.867 825.51 721C825.51 722.8 826.11 724.2 827.31 725.2C828.577 726.133 830.177 726.867 832.11 727.4C834.11 727.933 836.31 728.4 838.71 728.8C841.11 729.133 843.51 729.6 845.91 730.2C848.31 730.733 850.477 731.5 852.41 732.5C854.41 733.5 856.01 734.9 857.21 736.7C858.477 738.5 859.11 740.9 859.11 743.9C859.11 747.1 858.177 749.867 856.31 752.2C854.443 754.533 851.81 756.367 848.41 757.7C845.01 758.967 840.943 759.6 836.21 759.6ZM871.108 759V706H880.708V759H871.108ZM875.908 695.8C874.041 695.8 872.474 695.2 871.208 694C870.008 692.8 869.408 691.333 869.408 689.6C869.408 687.8 870.008 686.3 871.208 685.1C872.474 683.9 874.041 683.3 875.908 683.3C877.774 683.3 879.308 683.9 880.508 685.1C881.774 686.233 882.408 687.667 882.408 689.4C882.408 691.2 881.808 692.733 880.608 694C879.408 695.2 877.841 695.8 875.908 695.8ZM922.138 759.6C916.738 759.6 911.904 758.433 907.638 756.1C903.438 753.767 900.138 750.567 897.738 746.5C895.338 742.433 894.138 737.767 894.138 732.5C894.138 727.233 895.338 722.567 897.738 718.5C900.138 714.433 903.438 711.267 907.638 709C911.904 706.667 916.738 705.5 922.138 705.5C926.938 705.5 931.204 706.467 934.938 708.4C938.738 710.267 941.671 713.067 943.738 716.8L936.438 721.5C934.704 718.9 932.571 717 930.038 715.8C927.571 714.533 924.904 713.9 922.038 713.9C918.571 713.9 915.471 714.667 912.738 716.2C910.004 717.733 907.838 719.9 906.238 722.7C904.638 725.433 903.838 728.7 903.838 732.5C903.838 736.3 904.638 739.6 906.238 742.4C907.838 745.2 910.004 747.367 912.738 748.9C915.471 750.433 918.571 751.2 922.038 751.2C924.904 751.2 927.571 750.6 930.038 749.4C932.571 748.133 934.704 746.2 936.438 743.6L943.738 748.2C941.671 751.867 938.738 754.7 934.938 756.7C931.204 758.633 926.938 759.6 922.138 759.6ZM971.366 759.6C966.966 759.6 962.766 759 958.766 757.8C954.833 756.6 951.733 755.133 949.466 753.4L953.466 745.8C955.733 747.333 958.533 748.633 961.866 749.7C965.2 750.767 968.6 751.3 972.066 751.3C976.533 751.3 979.733 750.667 981.666 749.4C983.666 748.133 984.666 746.367 984.666 744.1C984.666 742.433 984.066 741.133 982.866 740.2C981.666 739.267 980.066 738.567 978.066 738.1C976.133 737.633 973.966 737.233 971.566 736.9C969.166 736.5 966.766 736.033 964.366 735.5C961.966 734.9 959.766 734.1 957.766 733.1C955.766 732.033 954.166 730.6 952.966 728.8C951.766 726.933 951.166 724.467 951.166 721.4C951.166 718.2 952.066 715.4 953.866 713C955.666 710.6 958.2 708.767 961.466 707.5C964.8 706.167 968.733 705.5 973.266 705.5C976.733 705.5 980.233 705.933 983.766 706.8C987.366 707.6 990.3 708.767 992.566 710.3L988.466 717.9C986.066 716.3 983.566 715.2 980.966 714.6C978.366 714 975.766 713.7 973.166 713.7C968.966 713.7 965.833 714.4 963.766 715.8C961.7 717.133 960.666 718.867 960.666 721C960.666 722.8 961.266 724.2 962.466 725.2C963.733 726.133 965.333 726.867 967.266 727.4C969.266 727.933 971.466 728.4 973.866 728.8C976.266 729.133 978.666 729.6 981.066 730.2C983.466 730.733 985.633 731.5 987.566 732.5C989.566 733.5 991.166 734.9 992.366 736.7C993.633 738.5 994.266 740.9 994.266 743.9C994.266 747.1 993.333 749.867 991.466 752.2C989.6 754.533 986.966 756.367 983.566 757.7C980.166 758.967 976.1 759.6 971.366 759.6ZM1029.72 735.7V727.4H1056.62V735.7H1029.72ZM1128.66 759.8C1119.46 759.8 1112.22 757.167 1106.96 751.9C1101.69 746.633 1099.06 738.933 1099.06 728.8V689H1109.06V728.4C1109.06 736.2 1110.76 741.9 1114.16 745.5C1117.62 749.1 1122.49 750.9 1128.76 750.9C1135.09 750.9 1139.96 749.1 1143.36 745.5C1146.82 741.9 1148.56 736.2 1148.56 728.4V689H1158.26V728.8C1158.26 738.933 1155.62 746.633 1150.36 751.9C1145.16 757.167 1137.92 759.8 1128.66 759.8ZM1205.66 705.5C1209.99 705.5 1213.79 706.333 1217.06 708C1220.39 709.667 1222.99 712.2 1224.86 715.6C1226.72 719 1227.66 723.3 1227.66 728.5V759H1218.06V729.6C1218.06 724.467 1216.79 720.6 1214.26 718C1211.79 715.4 1208.29 714.1 1203.76 714.1C1200.36 714.1 1197.39 714.767 1194.86 716.1C1192.32 717.433 1190.36 719.4 1188.96 722C1187.62 724.6 1186.96 727.833 1186.96 731.7V759H1177.36V706H1186.56V720.3L1185.06 716.5C1186.79 713.033 1189.46 710.333 1193.06 708.4C1196.66 706.467 1200.86 705.5 1205.66 705.5ZM1245.42 759V706H1255.02V759H1245.42ZM1250.22 695.8C1248.36 695.8 1246.79 695.2 1245.52 694C1244.32 692.8 1243.72 691.333 1243.72 689.6C1243.72 687.8 1244.32 686.3 1245.52 685.1C1246.79 683.9 1248.36 683.3 1250.22 683.3C1252.09 683.3 1253.62 683.9 1254.82 685.1C1256.09 686.233 1256.72 687.667 1256.72 689.4C1256.72 691.2 1256.12 692.733 1254.92 694C1253.72 695.2 1252.16 695.8 1250.22 695.8ZM1306.35 759.8C1300.95 759.8 1295.99 758.933 1291.45 757.2C1286.92 755.4 1282.99 752.9 1279.65 749.7C1276.32 746.433 1273.72 742.633 1271.85 738.3C1269.99 733.967 1269.05 729.2 1269.05 724C1269.05 718.8 1269.99 714.033 1271.85 709.7C1273.72 705.367 1276.32 701.6 1279.65 698.4C1283.05 695.133 1287.02 692.633 1291.55 690.9C1296.09 689.1 1301.09 688.2 1306.55 688.2C1312.09 688.2 1317.15 689.1 1321.75 690.9C1326.35 692.7 1330.25 695.4 1333.45 699L1327.25 705.2C1324.39 702.4 1321.25 700.367 1317.85 699.1C1314.52 697.767 1310.89 697.1 1306.95 697.1C1302.95 697.1 1299.22 697.767 1295.75 699.1C1292.35 700.433 1289.39 702.3 1286.85 704.7C1284.39 707.1 1282.45 709.967 1281.05 713.3C1279.72 716.567 1279.05 720.133 1279.05 724C1279.05 727.8 1279.72 731.367 1281.05 734.7C1282.45 737.967 1284.39 740.833 1286.85 743.3C1289.39 745.7 1292.35 747.567 1295.75 748.9C1299.15 750.233 1302.85 750.9 1306.85 750.9C1310.59 750.9 1314.15 750.333 1317.55 749.2C1321.02 748 1324.22 746.033 1327.15 743.3L1332.85 750.9C1329.39 753.833 1325.32 756.067 1320.65 757.6C1316.05 759.067 1311.29 759.8 1306.35 759.8ZM1323.25 749.6V723.6H1332.85V750.9L1323.25 749.6ZM1374.2 759.6C1368.53 759.6 1363.53 758.433 1359.2 756.1C1354.93 753.767 1351.6 750.567 1349.2 746.5C1346.87 742.433 1345.7 737.767 1345.7 732.5C1345.7 727.233 1346.83 722.567 1349.1 718.5C1351.43 714.433 1354.6 711.267 1358.6 709C1362.67 706.667 1367.23 705.5 1372.3 705.5C1377.43 705.5 1381.97 706.633 1385.9 708.9C1389.83 711.167 1392.9 714.367 1395.1 718.5C1397.37 722.567 1398.5 727.333 1398.5 732.8C1398.5 733.2 1398.47 733.667 1398.4 734.2C1398.4 734.733 1398.37 735.233 1398.3 735.7H1353.2V728.8H1393.3L1389.4 731.2C1389.47 727.8 1388.77 724.767 1387.3 722.1C1385.83 719.433 1383.8 717.367 1381.2 715.9C1378.67 714.367 1375.7 713.6 1372.3 713.6C1368.97 713.6 1366 714.367 1363.4 715.9C1360.8 717.367 1358.77 719.467 1357.3 722.2C1355.83 724.867 1355.1 727.933 1355.1 731.4V733C1355.1 736.533 1355.9 739.7 1357.5 742.5C1359.17 745.233 1361.47 747.367 1364.4 748.9C1367.33 750.433 1370.7 751.2 1374.5 751.2C1377.63 751.2 1380.47 750.667 1383 749.6C1385.6 748.533 1387.87 746.933 1389.8 744.8L1395.1 751C1392.7 753.8 1389.7 755.933 1386.1 757.4C1382.57 758.867 1378.6 759.6 1374.2 759.6Z" fill="white"/>
</svg>
