<svg width="1920" height="1080" viewBox="0 0 1920 1080" fill="none" xmlns="http://www.w3.org/2000/svg">
<rect width="1920" height="1080" fill="#040404"/>
<path d="M230.904 539.719V423.703C230.904 423.703 254.879 423.703 302.828 423.703C314.449 423.703 324.41 429.416 332.711 440.842C341.109 452.17 345.309 465.793 345.309 481.711C345.309 497.727 341.109 511.398 332.711 522.727C324.41 534.055 314.449 539.719 302.828 539.719H230.904ZM241.451 529.172H302.828C311.52 529.172 318.941 524.533 325.094 515.256C331.344 505.979 334.469 494.797 334.469 481.711C334.469 468.527 331.344 457.346 325.094 448.166C318.941 438.889 311.52 434.25 302.828 434.25H241.451V529.172ZM220.357 550.266H302.828C317.379 550.266 329.879 543.576 340.328 530.197C350.875 516.721 356.148 500.559 356.148 481.711C356.148 469.309 353.707 457.834 348.824 447.287C344.039 436.74 337.545 428.439 329.342 422.385C321.236 416.232 312.398 413.156 302.828 413.156H220.357V550.266ZM209.811 560.812V402.609H302.828C314.254 402.609 324.898 406.125 334.762 413.156C344.625 420.188 352.438 429.807 358.199 442.014C364.059 454.123 366.988 467.355 366.988 481.711C366.988 495.969 364.059 509.201 358.199 521.408C352.438 533.615 344.625 543.234 334.762 550.266C324.898 557.297 314.254 560.812 302.828 560.812H209.811ZM199.264 571.359H302.828C316.207 571.359 328.609 567.355 340.035 559.348C351.559 551.34 360.738 540.451 367.574 526.682C374.41 512.912 377.828 497.922 377.828 481.711C377.828 465.598 374.41 450.656 367.574 436.887C360.738 423.02 351.559 412.082 340.035 404.074C328.512 396.066 316.109 392.062 302.828 392.062H199.264V571.359ZM188.717 581.906V381.516H302.828C318.062 381.516 332.271 386.008 345.455 394.992C358.639 403.879 369.137 416.037 376.949 431.467C384.762 446.896 388.668 463.645 388.668 481.711C388.668 499.777 384.762 516.525 376.949 531.955C369.137 547.385 358.639 559.592 345.455 568.576C332.271 577.463 318.062 581.906 302.828 581.906H188.717ZM178.17 592.453H302.828C315.621 592.453 327.975 589.523 339.889 583.664C351.803 577.805 362.105 569.943 370.797 560.08C379.488 550.217 386.422 538.449 391.598 524.777C396.871 511.008 399.508 496.652 399.508 481.711C399.508 466.77 396.871 452.463 391.598 438.791C386.422 425.119 379.488 413.352 370.797 403.488C362.105 393.527 351.803 385.617 339.889 379.758C327.975 373.898 315.621 370.969 302.828 370.969H178.17V592.453ZM302.828 603H167.623V360.422H302.828C321.871 360.422 339.645 365.842 356.148 376.682C372.652 387.521 385.787 402.268 395.553 420.92C405.416 439.572 410.348 459.836 410.348 481.711C410.348 498.117 407.418 513.84 401.559 528.879C395.797 543.82 388.082 556.711 378.414 567.551C368.746 578.391 357.271 587.033 343.99 593.479C330.807 599.826 317.086 603 302.828 603ZM507.467 603H496.92V360.422H613.668V370.969H507.467V381.516H613.668V392.062H507.467V402.609H613.668V413.156H507.467V465.891H608.688V476.438H507.467V486.984H608.688V497.531H507.467V508.078H608.688V518.625H507.467V603ZM486.373 603H475.826V360.422H486.373V603ZM465.279 603H454.732V360.422H465.279V603ZM444.186 603H433.639V360.422H444.186V603Z" fill="#F42323"/>
<path d="M162.3 759V689H194.1C201.7 689 208.4 690.467 214.2 693.4C220 696.267 224.533 700.3 227.8 705.5C231.067 710.7 232.7 716.867 232.7 724C232.7 731.067 231.067 737.233 227.8 742.5C224.533 747.7 220 751.767 214.2 754.7C208.4 757.567 201.7 759 194.1 759H162.3ZM178.5 745.7H193.3C197.967 745.7 202 744.833 205.4 743.1C208.867 741.3 211.533 738.767 213.4 735.5C215.333 732.233 216.3 728.4 216.3 724C216.3 719.533 215.333 715.7 213.4 712.5C211.533 709.233 208.867 706.733 205.4 705C202 703.2 197.967 702.3 193.3 702.3H178.5V745.7ZM243.817 759V705.2H259.417V759H243.817ZM251.617 697.7C248.751 697.7 246.417 696.867 244.617 695.2C242.817 693.533 241.917 691.467 241.917 689C241.917 686.533 242.817 684.467 244.617 682.8C246.417 681.133 248.751 680.3 251.617 680.3C254.484 680.3 256.817 681.1 258.617 682.7C260.417 684.233 261.317 686.233 261.317 688.7C261.317 691.3 260.417 693.467 258.617 695.2C256.884 696.867 254.551 697.7 251.617 697.7ZM299.195 779.2C294.129 779.2 289.229 778.567 284.495 777.3C279.829 776.1 275.929 774.267 272.795 771.8L278.995 760.6C281.262 762.467 284.129 763.933 287.595 765C291.129 766.133 294.595 766.7 297.995 766.7C303.529 766.7 307.529 765.467 309.995 763C312.529 760.533 313.795 756.867 313.795 752V743.9L314.795 730.4L314.595 716.8V705.2H329.395V750C329.395 760 326.795 767.367 321.595 772.1C316.395 776.833 308.929 779.2 299.195 779.2ZM296.795 756.4C291.795 756.4 287.262 755.333 283.195 753.2C279.195 751 275.962 747.967 273.495 744.1C271.095 740.167 269.895 735.6 269.895 730.4C269.895 725.133 271.095 720.567 273.495 716.7C275.962 712.767 279.195 709.733 283.195 707.6C287.262 705.467 291.795 704.4 296.795 704.4C301.329 704.4 305.329 705.333 308.795 707.2C312.262 709 314.962 711.833 316.895 715.7C318.829 719.5 319.795 724.4 319.795 730.4C319.795 736.333 318.829 741.233 316.895 745.1C314.962 748.9 312.262 751.733 308.795 753.6C305.329 755.467 301.329 756.4 296.795 756.4ZM299.895 743.6C302.629 743.6 305.062 743.067 307.195 742C309.329 740.867 310.995 739.3 312.195 737.3C313.395 735.3 313.995 733 313.995 730.4C313.995 727.733 313.395 725.433 312.195 723.5C310.995 721.5 309.329 719.967 307.195 718.9C305.062 717.767 302.629 717.2 299.895 717.2C297.162 717.2 294.729 717.767 292.595 718.9C290.462 719.967 288.762 721.5 287.495 723.5C286.295 725.433 285.695 727.733 285.695 730.4C285.695 733 286.295 735.3 287.495 737.3C288.762 739.3 290.462 740.867 292.595 742C294.729 743.067 297.162 743.6 299.895 743.6ZM343.915 759V705.2H359.515V759H343.915ZM351.715 697.7C348.848 697.7 346.515 696.867 344.715 695.2C342.915 693.533 342.015 691.467 342.015 689C342.015 686.533 342.915 684.467 344.715 682.8C346.515 681.133 348.848 680.3 351.715 680.3C354.582 680.3 356.915 681.1 358.715 682.7C360.515 684.233 361.415 686.233 361.415 688.7C361.415 691.3 360.515 693.467 358.715 695.2C356.982 696.867 354.648 697.7 351.715 697.7ZM395.993 759.8C389.66 759.8 384.726 758.2 381.193 755C377.66 751.733 375.893 746.9 375.893 740.5V693.3H391.493V740.3C391.493 742.567 392.093 744.333 393.293 745.6C394.493 746.8 396.126 747.4 398.193 747.4C400.66 747.4 402.76 746.733 404.493 745.4L408.693 756.4C407.093 757.533 405.16 758.4 402.893 759C400.693 759.533 398.393 759.8 395.993 759.8ZM367.593 718.4V706.4H404.893V718.4H367.593ZM450.45 759V748.5L449.45 746.2V727.4C449.45 724.067 448.417 721.467 446.35 719.6C444.35 717.733 441.25 716.8 437.05 716.8C434.183 716.8 431.35 717.267 428.55 718.2C425.817 719.067 423.483 720.267 421.55 721.8L415.95 710.9C418.883 708.833 422.417 707.233 426.55 706.1C430.683 704.967 434.883 704.4 439.15 704.4C447.35 704.4 453.717 706.333 458.25 710.2C462.783 714.067 465.05 720.1 465.05 728.3V759H450.45ZM434.05 759.8C429.85 759.8 426.25 759.1 423.25 757.7C420.25 756.233 417.95 754.267 416.35 751.8C414.75 749.333 413.95 746.567 413.95 743.5C413.95 740.3 414.717 737.5 416.25 735.1C417.85 732.7 420.35 730.833 423.75 729.5C427.15 728.1 431.583 727.4 437.05 727.4H451.35V736.5H438.75C435.083 736.5 432.55 737.1 431.15 738.3C429.817 739.5 429.15 741 429.15 742.8C429.15 744.8 429.917 746.4 431.45 747.6C433.05 748.733 435.217 749.3 437.95 749.3C440.55 749.3 442.883 748.7 444.95 747.5C447.017 746.233 448.517 744.4 449.45 742L451.85 749.2C450.717 752.667 448.65 755.3 445.65 757.1C442.65 758.9 438.783 759.8 434.05 759.8ZM479.169 759V684.8H494.769V759H479.169ZM553.667 720.5H587.267V733.5H553.667V720.5ZM554.867 759H538.667V689H591.567V702H554.867V759ZM625.765 759.8C620.032 759.8 614.932 758.6 610.465 756.2C606.065 753.8 602.565 750.533 599.965 746.4C597.432 742.2 596.165 737.433 596.165 732.1C596.165 726.7 597.432 721.933 599.965 717.8C602.565 713.6 606.065 710.333 610.465 708C614.932 705.6 620.032 704.4 625.765 704.4C631.432 704.4 636.498 705.6 640.965 708C645.432 710.333 648.932 713.567 651.465 717.7C653.998 721.833 655.265 726.633 655.265 732.1C655.265 737.433 653.998 742.2 651.465 746.4C648.932 750.533 645.432 753.8 640.965 756.2C636.498 758.6 631.432 759.8 625.765 759.8ZM625.765 747C628.365 747 630.698 746.4 632.765 745.2C634.832 744 636.465 742.3 637.665 740.1C638.865 737.833 639.465 735.167 639.465 732.1C639.465 728.967 638.865 726.3 637.665 724.1C636.465 721.9 634.832 720.2 632.765 719C630.698 717.8 628.365 717.2 625.765 717.2C623.165 717.2 620.832 717.8 618.765 719C616.698 720.2 615.032 721.9 613.765 724.1C612.565 726.3 611.965 728.967 611.965 732.1C611.965 735.167 612.565 737.833 613.765 740.1C615.032 742.3 616.698 744 618.765 745.2C620.832 746.4 623.165 747 625.765 747ZM665.692 759V705.2H680.592V720.4L678.492 716C680.092 712.2 682.659 709.333 686.192 707.4C689.726 705.4 694.026 704.4 699.092 704.4V718.8C698.426 718.733 697.826 718.7 697.292 718.7C696.759 718.633 696.192 718.6 695.592 718.6C691.326 718.6 687.859 719.833 685.192 722.3C682.592 724.7 681.292 728.467 681.292 733.6V759H665.692ZM734.677 759.8C728.544 759.8 723.144 758.6 718.477 756.2C713.877 753.8 710.311 750.533 707.777 746.4C705.244 742.2 703.977 737.433 703.977 732.1C703.977 726.7 705.211 721.933 707.677 717.8C710.211 713.6 713.644 710.333 717.977 708C722.311 705.6 727.211 704.4 732.677 704.4C737.944 704.4 742.677 705.533 746.877 707.8C751.144 710 754.511 713.2 756.977 717.4C759.444 721.533 760.677 726.5 760.677 732.3C760.677 732.9 760.644 733.6 760.577 734.4C760.511 735.133 760.444 735.833 760.377 736.5H716.677V727.4H752.177L746.177 730.1C746.177 727.3 745.611 724.867 744.477 722.8C743.344 720.733 741.777 719.133 739.777 718C737.777 716.8 735.444 716.2 732.777 716.2C730.111 716.2 727.744 716.8 725.677 718C723.677 719.133 722.111 720.767 720.977 722.9C719.844 724.967 719.277 727.433 719.277 730.3V732.7C719.277 735.633 719.911 738.233 721.177 740.5C722.511 742.7 724.344 744.4 726.677 745.6C729.077 746.733 731.877 747.3 735.077 747.3C737.944 747.3 740.444 746.867 742.577 746C744.777 745.133 746.777 743.833 748.577 742.1L756.877 751.1C754.411 753.9 751.311 756.067 747.577 757.6C743.844 759.067 739.544 759.8 734.677 759.8ZM803.763 704.4C808.03 704.4 811.83 705.267 815.163 707C818.563 708.667 821.23 711.267 823.163 714.8C825.097 718.267 826.063 722.733 826.063 728.2V759H810.463V730.6C810.463 726.267 809.497 723.067 807.563 721C805.697 718.933 803.03 717.9 799.563 717.9C797.097 717.9 794.863 718.433 792.863 719.5C790.93 720.5 789.397 722.067 788.263 724.2C787.197 726.333 786.663 729.067 786.663 732.4V759H771.063V705.2H785.963V720.1L783.163 715.6C785.097 712 787.863 709.233 791.463 707.3C795.063 705.367 799.163 704.4 803.763 704.4ZM858.304 759.8C853.704 759.8 849.271 759.267 845.004 758.2C840.804 757.067 837.471 755.667 835.004 754L840.204 742.8C842.671 744.333 845.571 745.6 848.904 746.6C852.304 747.533 855.637 748 858.904 748C862.504 748 865.037 747.567 866.504 746.7C868.037 745.833 868.804 744.633 868.804 743.1C868.804 741.833 868.204 740.9 867.004 740.3C865.871 739.633 864.337 739.133 862.404 738.8C860.471 738.467 858.337 738.133 856.004 737.8C853.737 737.467 851.437 737.033 849.104 736.5C846.771 735.9 844.637 735.033 842.704 733.9C840.771 732.767 839.204 731.233 838.004 729.3C836.871 727.367 836.304 724.867 836.304 721.8C836.304 718.4 837.271 715.4 839.204 712.8C841.204 710.2 844.071 708.167 847.804 706.7C851.537 705.167 856.004 704.4 861.204 704.4C864.871 704.4 868.604 704.8 872.404 705.6C876.204 706.4 879.371 707.567 881.904 709.1L876.704 720.2C874.104 718.667 871.471 717.633 868.804 717.1C866.204 716.5 863.671 716.2 861.204 716.2C857.737 716.2 855.204 716.667 853.604 717.6C852.004 718.533 851.204 719.733 851.204 721.2C851.204 722.533 851.771 723.533 852.904 724.2C854.104 724.867 855.671 725.4 857.604 725.8C859.537 726.2 861.637 726.567 863.904 726.9C866.237 727.167 868.571 727.6 870.904 728.2C873.237 728.8 875.337 729.667 877.204 730.8C879.137 731.867 880.704 733.367 881.904 735.3C883.104 737.167 883.704 739.633 883.704 742.7C883.704 746.033 882.704 749 880.704 751.6C878.704 754.133 875.804 756.133 872.004 757.6C868.271 759.067 863.704 759.8 858.304 759.8ZM893.329 759V705.2H908.929V759H893.329ZM901.129 697.7C898.262 697.7 895.929 696.867 894.129 695.2C892.329 693.533 891.429 691.467 891.429 689C891.429 686.533 892.329 684.467 894.129 682.8C895.929 681.133 898.262 680.3 901.129 680.3C903.996 680.3 906.329 681.1 908.129 682.7C909.929 684.233 910.829 686.233 910.829 688.7C910.829 691.3 909.929 693.467 908.129 695.2C906.396 696.867 904.062 697.7 901.129 697.7ZM949.407 759.8C943.607 759.8 938.44 758.633 933.907 756.3C929.374 753.9 925.807 750.6 923.207 746.4C920.674 742.2 919.407 737.433 919.407 732.1C919.407 726.7 920.674 721.933 923.207 717.8C925.807 713.6 929.374 710.333 933.907 708C938.44 705.6 943.607 704.4 949.407 704.4C955.074 704.4 960.007 705.6 964.207 708C968.407 710.333 971.507 713.7 973.507 718.1L961.407 724.6C960.007 722.067 958.24 720.2 956.107 719C954.04 717.8 951.774 717.2 949.307 717.2C946.64 717.2 944.24 717.8 942.107 719C939.974 720.2 938.274 721.9 937.007 724.1C935.807 726.3 935.207 728.967 935.207 732.1C935.207 735.233 935.807 737.9 937.007 740.1C938.274 742.3 939.974 744 942.107 745.2C944.24 746.4 946.64 747 949.307 747C951.774 747 954.04 746.433 956.107 745.3C958.24 744.1 960.007 742.2 961.407 739.6L973.507 746.2C971.507 750.533 968.407 753.9 964.207 756.3C960.007 758.633 955.074 759.8 949.407 759.8ZM1000.59 759.8C995.989 759.8 991.556 759.267 987.289 758.2C983.089 757.067 979.756 755.667 977.289 754L982.489 742.8C984.956 744.333 987.856 745.6 991.189 746.6C994.589 747.533 997.922 748 1001.19 748C1004.79 748 1007.32 747.567 1008.79 746.7C1010.32 745.833 1011.09 744.633 1011.09 743.1C1011.09 741.833 1010.49 740.9 1009.29 740.3C1008.16 739.633 1006.62 739.133 1004.69 738.8C1002.76 738.467 1000.62 738.133 998.289 737.8C996.022 737.467 993.722 737.033 991.389 736.5C989.056 735.9 986.922 735.033 984.989 733.9C983.056 732.767 981.489 731.233 980.289 729.3C979.156 727.367 978.589 724.867 978.589 721.8C978.589 718.4 979.556 715.4 981.489 712.8C983.489 710.2 986.356 708.167 990.089 706.7C993.822 705.167 998.289 704.4 1003.49 704.4C1007.16 704.4 1010.89 704.8 1014.69 705.6C1018.49 706.4 1021.66 707.567 1024.19 709.1L1018.99 720.2C1016.39 718.667 1013.76 717.633 1011.09 717.1C1008.49 716.5 1005.96 716.2 1003.49 716.2C1000.02 716.2 997.489 716.667 995.889 717.6C994.289 718.533 993.489 719.733 993.489 721.2C993.489 722.533 994.056 723.533 995.189 724.2C996.389 724.867 997.956 725.4 999.889 725.8C1001.82 726.2 1003.92 726.567 1006.19 726.9C1008.52 727.167 1010.86 727.6 1013.19 728.2C1015.52 728.8 1017.62 729.667 1019.49 730.8C1021.42 731.867 1022.99 733.367 1024.19 735.3C1025.39 737.167 1025.99 739.633 1025.99 742.7C1025.99 746.033 1024.99 749 1022.99 751.6C1020.99 754.133 1018.09 756.133 1014.29 757.6C1010.56 759.067 1005.99 759.8 1000.59 759.8ZM1061.93 737.1V724.6H1090.23V737.1H1061.93ZM1163.03 760.2C1153.1 760.2 1145.33 757.433 1139.73 751.9C1134.13 746.367 1131.33 738.467 1131.33 728.2V689H1147.53V727.6C1147.53 734.267 1148.9 739.067 1151.63 742C1154.36 744.933 1158.2 746.4 1163.13 746.4C1168.06 746.4 1171.9 744.933 1174.63 742C1177.36 739.067 1178.73 734.267 1178.73 727.6V689H1194.73V728.2C1194.73 738.467 1191.93 746.367 1186.33 751.9C1180.73 757.433 1172.96 760.2 1163.03 760.2ZM1242.34 704.4C1246.6 704.4 1250.4 705.267 1253.74 707C1257.14 708.667 1259.8 711.267 1261.74 714.8C1263.67 718.267 1264.64 722.733 1264.64 728.2V759H1249.04V730.6C1249.04 726.267 1248.07 723.067 1246.14 721C1244.27 718.933 1241.6 717.9 1238.14 717.9C1235.67 717.9 1233.44 718.433 1231.44 719.5C1229.5 720.5 1227.97 722.067 1226.84 724.2C1225.77 726.333 1225.24 729.067 1225.24 732.4V759H1209.64V705.2H1224.54V720.1L1221.74 715.6C1223.67 712 1226.44 709.233 1230.04 707.3C1233.64 705.367 1237.74 704.4 1242.34 704.4ZM1278.78 759V705.2H1294.38V759H1278.78ZM1286.58 697.7C1283.71 697.7 1281.38 696.867 1279.58 695.2C1277.78 693.533 1276.88 691.467 1276.88 689C1276.88 686.533 1277.78 684.467 1279.58 682.8C1281.38 681.133 1283.71 680.3 1286.58 680.3C1289.44 680.3 1291.78 681.1 1293.58 682.7C1295.38 684.233 1296.28 686.233 1296.28 688.7C1296.28 691.3 1295.38 693.467 1293.58 695.2C1291.84 696.867 1289.51 697.7 1286.58 697.7ZM1343.76 760.2C1338.22 760.2 1333.12 759.333 1328.46 757.6C1323.86 755.8 1319.82 753.267 1316.36 750C1312.96 746.733 1310.29 742.9 1308.36 738.5C1306.49 734.1 1305.56 729.267 1305.56 724C1305.56 718.733 1306.49 713.9 1308.36 709.5C1310.29 705.1 1312.99 701.267 1316.46 698C1319.92 694.733 1323.99 692.233 1328.66 690.5C1333.32 688.7 1338.46 687.8 1344.06 687.8C1350.26 687.8 1355.82 688.833 1360.76 690.9C1365.76 692.967 1369.96 695.967 1373.36 699.9L1362.96 709.5C1360.42 706.833 1357.66 704.867 1354.66 703.6C1351.66 702.267 1348.39 701.6 1344.86 701.6C1341.46 701.6 1338.36 702.133 1335.56 703.2C1332.76 704.267 1330.32 705.8 1328.26 707.8C1326.26 709.8 1324.69 712.167 1323.56 714.9C1322.49 717.633 1321.96 720.667 1321.96 724C1321.96 727.267 1322.49 730.267 1323.56 733C1324.69 735.733 1326.26 738.133 1328.26 740.2C1330.32 742.2 1332.72 743.733 1335.46 744.8C1338.26 745.867 1341.32 746.4 1344.66 746.4C1347.86 746.4 1350.96 745.9 1353.96 744.9C1357.02 743.833 1359.99 742.067 1362.86 739.6L1372.06 751.3C1368.26 754.167 1363.82 756.367 1358.76 757.9C1353.76 759.433 1348.76 760.2 1343.76 760.2ZM1357.26 749.2V722.9H1372.06V751.3L1357.26 749.2ZM1412.7 759.8C1406.57 759.8 1401.17 758.6 1396.5 756.2C1391.9 753.8 1388.34 750.533 1385.8 746.4C1383.27 742.2 1382 737.433 1382 732.1C1382 726.7 1383.24 721.933 1385.7 717.8C1388.24 713.6 1391.67 710.333 1396 708C1400.34 705.6 1405.24 704.4 1410.7 704.4C1415.97 704.4 1420.7 705.533 1424.9 707.8C1429.17 710 1432.54 713.2 1435 717.4C1437.47 721.533 1438.7 726.5 1438.7 732.3C1438.7 732.9 1438.67 733.6 1438.6 734.4C1438.54 735.133 1438.47 735.833 1438.4 736.5H1394.7V727.4H1430.2L1424.2 730.1C1424.2 727.3 1423.64 724.867 1422.5 722.8C1421.37 720.733 1419.8 719.133 1417.8 718C1415.8 716.8 1413.47 716.2 1410.8 716.2C1408.14 716.2 1405.77 716.8 1403.7 718C1401.7 719.133 1400.14 720.767 1399 722.9C1397.87 724.967 1397.3 727.433 1397.3 730.3V732.7C1397.3 735.633 1397.94 738.233 1399.2 740.5C1400.54 742.7 1402.37 744.4 1404.7 745.6C1407.1 746.733 1409.9 747.3 1413.1 747.3C1415.97 747.3 1418.47 746.867 1420.6 746C1422.8 745.133 1424.8 743.833 1426.6 742.1L1434.9 751.1C1432.44 753.9 1429.34 756.067 1425.6 757.6C1421.87 759.067 1417.57 759.8 1412.7 759.8Z" fill="#F42323"/>
</svg>
