<svg width="1920" height="1080" viewBox="0 0 1920 1080" fill="none" xmlns="http://www.w3.org/2000/svg">
<path d="M0 0H1920V1080H0V0Z" fill="url(#paint0_linear_209_8)"/>
<path d="M215.5 359.6C237.7 359.6 257.1 364.1 273.7 373.1C290.5 382.1 303.4 394.6 312.4 410.6C321.4 426.6 325.9 444.8 325.9 465.2C325.9 485.4 321.4 503.6 312.4 519.8C303.4 536 290.5 548.8 273.7 558.2C257.1 567.4 237.7 572 215.5 572H127V359.6H215.5ZM209.5 512.6C224.5 512.6 236.4 508.5 245.2 500.3C254 492.1 258.4 480.4 258.4 465.2C258.4 450 254 438.3 245.2 430.1C236.4 421.9 224.5 417.8 209.5 417.8H193.6V512.6H209.5Z" fill="white"/>
<path d="M499.949 359.6V412.4H416.549V441.8H476.549V491.9H416.549V572H349.949V359.6H499.949Z" fill="white"/>
<path d="M141.4 657.3C149 657.3 155.567 658.733 161.1 661.6C166.7 664.4 170.967 668.433 173.9 673.7C176.9 678.967 178.4 685.167 178.4 692.3C178.4 699.433 176.9 705.633 173.9 710.9C170.967 716.1 166.7 720.1 161.1 722.9C155.567 725.633 149 727 141.4 727H119.7V657.3H141.4ZM141.4 719.5C150.4 719.5 157.267 717.133 162 712.4C166.733 707.6 169.1 700.9 169.1 692.3C169.1 683.633 166.7 676.867 161.9 672C157.167 667.133 150.333 664.7 141.4 664.7H128.8V719.5H141.4Z" fill="white"/>
<path d="M195.103 663.3C193.37 663.3 191.903 662.7 190.703 661.5C189.503 660.3 188.903 658.833 188.903 657.1C188.903 655.367 189.503 653.9 190.703 652.7C191.903 651.5 193.37 650.9 195.103 650.9C196.77 650.9 198.17 651.5 199.303 652.7C200.503 653.9 201.103 655.367 201.103 657.1C201.103 658.833 200.503 660.3 199.303 661.5C198.17 662.7 196.77 663.3 195.103 663.3ZM199.503 672.2V727H190.403V672.2H199.503Z" fill="white"/>
<path d="M237.613 671.3C242.346 671.3 246.479 672.333 250.012 674.4C253.612 676.467 256.279 679.067 258.013 682.2V672.2H267.212V728.2C267.212 733.2 266.146 737.633 264.013 741.5C261.879 745.433 258.812 748.5 254.812 750.7C250.879 752.9 246.279 754 241.012 754C233.812 754 227.812 752.3 223.012 748.9C218.212 745.5 215.379 740.867 214.512 735H223.512C224.512 738.333 226.579 741 229.712 743C232.846 745.067 236.612 746.1 241.012 746.1C246.012 746.1 250.079 744.533 253.213 741.4C256.413 738.267 258.013 733.867 258.013 728.2V716.7C256.213 719.9 253.546 722.567 250.012 724.7C246.479 726.833 242.346 727.9 237.613 727.9C232.746 727.9 228.312 726.7 224.312 724.3C220.379 721.9 217.279 718.533 215.012 714.2C212.746 709.867 211.613 704.933 211.613 699.4C211.613 693.8 212.746 688.9 215.012 684.7C217.279 680.433 220.379 677.133 224.312 674.8C228.312 672.467 232.746 671.3 237.613 671.3ZM258.013 699.5C258.013 695.367 257.179 691.767 255.512 688.7C253.846 685.633 251.579 683.3 248.713 681.7C245.913 680.033 242.813 679.2 239.413 679.2C236.013 679.2 232.913 680 230.113 681.6C227.313 683.2 225.079 685.533 223.413 688.6C221.746 691.667 220.913 695.267 220.913 699.4C220.913 703.6 221.746 707.267 223.413 710.4C225.079 713.467 227.313 715.833 230.113 717.5C232.913 719.1 236.013 719.9 239.413 719.9C242.813 719.9 245.913 719.1 248.713 717.5C251.579 715.833 253.846 713.467 255.512 710.4C257.179 707.267 258.013 703.633 258.013 699.5Z" fill="white"/>
<path d="M287.291 663.3C285.557 663.3 284.091 662.7 282.891 661.5C281.691 660.3 281.091 658.833 281.091 657.1C281.091 655.367 281.691 653.9 282.891 652.7C284.091 651.5 285.557 650.9 287.291 650.9C288.957 650.9 290.357 651.5 291.491 652.7C292.691 653.9 293.291 655.367 293.291 657.1C293.291 658.833 292.691 660.3 291.491 661.5C290.357 662.7 288.957 663.3 287.291 663.3ZM291.691 672.2V727H282.591V672.2H291.691Z" fill="white"/>
<path d="M318.3 679.7V712C318.3 714.667 318.867 716.567 320 717.7C321.133 718.767 323.1 719.3 325.9 719.3H332.6V727H324.4C319.333 727 315.533 725.833 313 723.5C310.467 721.167 309.2 717.333 309.2 712V679.7H302.1V672.2H309.2V658.4H318.3V672.2H332.6V679.7H318.3Z" fill="white"/>
<path d="M340.226 699.4C340.226 693.8 341.359 688.9 343.626 684.7C345.892 680.433 348.992 677.133 352.926 674.8C356.926 672.467 361.359 671.3 366.226 671.3C371.026 671.3 375.192 672.333 378.726 674.4C382.259 676.467 384.892 679.067 386.626 682.2V672.2H395.826V727H386.626V716.8C384.826 720 382.126 722.667 378.526 724.8C374.992 726.867 370.859 727.9 366.126 727.9C361.259 727.9 356.859 726.7 352.926 724.3C348.992 721.9 345.892 718.533 343.626 714.2C341.359 709.867 340.226 704.933 340.226 699.4ZM386.626 699.5C386.626 695.367 385.792 691.767 384.126 688.7C382.459 685.633 380.192 683.3 377.326 681.7C374.526 680.033 371.426 679.2 368.026 679.2C364.626 679.2 361.526 680 358.726 681.6C355.926 683.2 353.692 685.533 352.026 688.6C350.359 691.667 349.526 695.267 349.526 699.4C349.526 703.6 350.359 707.267 352.026 710.4C353.692 713.467 355.926 715.833 358.726 717.5C361.526 719.1 364.626 719.9 368.026 719.9C371.426 719.9 374.526 719.1 377.326 717.5C380.192 715.833 382.459 713.467 384.126 710.4C385.792 707.267 386.626 703.633 386.626 699.5Z" fill="white"/>
<path d="M420.304 653V727H411.204V653H420.304Z" fill="white"/>
<path d="M501.873 657.3V664.7H471.573V688.2H496.173V695.6H471.573V727H462.473V657.3H501.873Z" fill="white"/>
<path d="M536.764 727.9C531.631 727.9 526.964 726.733 522.764 724.4C518.631 722.067 515.364 718.767 512.964 714.5C510.631 710.167 509.464 705.167 509.464 699.5C509.464 693.9 510.664 688.967 513.064 684.7C515.531 680.367 518.864 677.067 523.064 674.8C527.264 672.467 531.964 671.3 537.164 671.3C542.364 671.3 547.064 672.467 551.264 674.8C555.464 677.067 558.764 680.333 561.164 684.6C563.631 688.867 564.864 693.833 564.864 699.5C564.864 705.167 563.597 710.167 561.064 714.5C558.597 718.767 555.231 722.067 550.964 724.4C546.697 726.733 541.964 727.9 536.764 727.9ZM536.764 719.9C540.031 719.9 543.097 719.133 545.964 717.6C548.831 716.067 551.131 713.767 552.864 710.7C554.664 707.633 555.564 703.9 555.564 699.5C555.564 695.1 554.697 691.367 552.964 688.3C551.231 685.233 548.964 682.967 546.164 681.5C543.364 679.967 540.331 679.2 537.064 679.2C533.731 679.2 530.664 679.967 527.864 681.5C525.131 682.967 522.931 685.233 521.264 688.3C519.597 691.367 518.764 695.1 518.764 699.5C518.764 703.967 519.564 707.733 521.164 710.8C522.831 713.867 525.031 716.167 527.764 717.7C530.497 719.167 533.497 719.9 536.764 719.9Z" fill="white"/>
<path d="M585.929 681.1C587.529 677.967 589.796 675.533 592.729 673.8C595.729 672.067 599.362 671.2 603.629 671.2V680.6H601.229C591.029 680.6 585.929 686.133 585.929 697.2V727H576.829V672.2H585.929V681.1Z" fill="white"/>
<path d="M664.134 697.5C664.134 699.233 664.034 701.067 663.834 703H620.034C620.367 708.4 622.2 712.633 625.534 715.7C628.934 718.7 633.034 720.2 637.834 720.2C641.767 720.2 645.034 719.3 647.634 717.5C650.3 715.633 652.167 713.167 653.234 710.1H663.034C661.567 715.367 658.634 719.667 654.234 723C649.834 726.267 644.367 727.9 637.834 727.9C632.634 727.9 627.967 726.733 623.834 724.4C619.767 722.067 616.567 718.767 614.234 714.5C611.9 710.167 610.734 705.167 610.734 699.5C610.734 693.833 611.867 688.867 614.134 684.6C616.4 680.333 619.567 677.067 623.634 674.8C627.767 672.467 632.5 671.3 637.834 671.3C643.034 671.3 647.634 672.433 651.634 674.7C655.634 676.967 658.7 680.1 660.834 684.1C663.034 688.033 664.134 692.5 664.134 697.5ZM654.734 695.6C654.734 692.133 653.967 689.167 652.434 686.7C650.9 684.167 648.8 682.267 646.134 681C643.534 679.667 640.634 679 637.434 679C632.834 679 628.9 680.467 625.634 683.4C622.434 686.333 620.6 690.4 620.134 695.6H654.734Z" fill="white"/>
<path d="M702.845 671.2C709.512 671.2 714.912 673.233 719.045 677.3C723.179 681.3 725.245 687.1 725.245 694.7V727H716.245V696C716.245 690.533 714.879 686.367 712.145 683.5C709.412 680.567 705.679 679.1 700.945 679.1C696.145 679.1 692.312 680.6 689.445 683.6C686.645 686.6 685.245 690.967 685.245 696.7V727H676.145V672.2H685.245V680C687.045 677.2 689.479 675.033 692.545 673.5C695.679 671.967 699.112 671.2 702.845 671.2Z" fill="white"/>
<path d="M759.51 727.9C755.31 727.9 751.543 727.2 748.21 725.8C744.877 724.333 742.244 722.333 740.31 719.8C738.377 717.2 737.31 714.233 737.11 710.9H746.51C746.777 713.633 748.044 715.867 750.31 717.6C752.644 719.333 755.677 720.2 759.41 720.2C762.877 720.2 765.61 719.433 767.61 717.9C769.61 716.367 770.61 714.433 770.61 712.1C770.61 709.7 769.543 707.933 767.41 706.8C765.277 705.6 761.977 704.433 757.51 703.3C753.443 702.233 750.11 701.167 747.51 700.1C744.977 698.967 742.777 697.333 740.91 695.2C739.11 693 738.21 690.133 738.21 686.6C738.21 683.8 739.043 681.233 740.71 678.9C742.377 676.567 744.744 674.733 747.81 673.4C750.877 672 754.377 671.3 758.31 671.3C764.377 671.3 769.277 672.833 773.01 675.9C776.743 678.967 778.743 683.167 779.01 688.5H769.91C769.71 685.633 768.543 683.333 766.41 681.6C764.343 679.867 761.543 679 758.01 679C754.743 679 752.143 679.7 750.21 681.1C748.277 682.5 747.31 684.333 747.31 686.6C747.31 688.4 747.877 689.9 749.01 691.1C750.21 692.233 751.677 693.167 753.41 693.9C755.21 694.567 757.677 695.333 760.81 696.2C764.744 697.267 767.943 698.333 770.41 699.4C772.877 700.4 774.977 701.933 776.71 704C778.51 706.067 779.443 708.767 779.51 712.1C779.51 715.1 778.677 717.8 777.01 720.2C775.343 722.6 772.977 724.5 769.91 725.9C766.91 727.233 763.443 727.9 759.51 727.9Z" fill="white"/>
<path d="M797.056 663.3C795.323 663.3 793.856 662.7 792.656 661.5C791.456 660.3 790.856 658.833 790.856 657.1C790.856 655.367 791.456 653.9 792.656 652.7C793.856 651.5 795.323 650.9 797.056 650.9C798.723 650.9 800.123 651.5 801.256 652.7C802.456 653.9 803.056 655.367 803.056 657.1C803.056 658.833 802.456 660.3 801.256 661.5C800.123 662.7 798.723 663.3 797.056 663.3ZM801.456 672.2V727H792.356V672.2H801.456Z" fill="white"/>
<path d="M813.566 699.5C813.566 693.833 814.699 688.9 816.966 684.7C819.232 680.433 822.366 677.133 826.366 674.8C830.432 672.467 835.066 671.3 840.266 671.3C846.999 671.3 852.532 672.933 856.866 676.2C861.266 679.467 864.166 684 865.566 689.8H855.766C854.832 686.467 852.999 683.833 850.266 681.9C847.599 679.967 844.266 679 840.266 679C835.066 679 830.866 680.8 827.666 684.4C824.466 687.933 822.866 692.967 822.866 699.5C822.866 706.1 824.466 711.2 827.666 714.8C830.866 718.4 835.066 720.2 840.266 720.2C844.266 720.2 847.599 719.267 850.266 717.4C852.932 715.533 854.766 712.867 855.766 709.4H865.566C864.099 715 861.166 719.5 856.766 722.9C852.366 726.233 846.866 727.9 840.266 727.9C835.066 727.9 830.432 726.733 826.366 724.4C822.366 722.067 819.232 718.767 816.966 714.5C814.699 710.233 813.566 705.233 813.566 699.5Z" fill="white"/>
<path d="M897.108 727.9C892.908 727.9 889.141 727.2 885.808 725.8C882.474 724.333 879.841 722.333 877.908 719.8C875.975 717.2 874.908 714.233 874.708 710.9H884.108C884.374 713.633 885.641 715.867 887.908 717.6C890.241 719.333 893.274 720.2 897.008 720.2C900.474 720.2 903.208 719.433 905.208 717.9C907.208 716.367 908.208 714.433 908.208 712.1C908.208 709.7 907.141 707.933 905.008 706.8C902.874 705.6 899.574 704.433 895.108 703.3C891.041 702.233 887.708 701.167 885.108 700.1C882.574 698.967 880.374 697.333 878.508 695.2C876.708 693 875.808 690.133 875.808 686.6C875.808 683.8 876.641 681.233 878.308 678.9C879.974 676.567 882.341 674.733 885.408 673.4C888.475 672 891.975 671.3 895.908 671.3C901.975 671.3 906.874 672.833 910.608 675.9C914.341 678.967 916.341 683.167 916.608 688.5H907.508C907.308 685.633 906.141 683.333 904.008 681.6C901.941 679.867 899.141 679 895.608 679C892.341 679 889.741 679.7 887.808 681.1C885.874 682.5 884.908 684.333 884.908 686.6C884.908 688.4 885.474 689.9 886.608 691.1C887.808 692.233 889.274 693.167 891.008 693.9C892.808 694.567 895.275 695.333 898.408 696.2C902.341 697.267 905.541 698.333 908.008 699.4C910.474 700.4 912.574 701.933 914.308 704C916.108 706.067 917.041 708.767 917.108 712.1C917.108 715.1 916.274 717.8 914.608 720.2C912.941 722.6 910.574 724.5 907.508 725.9C904.508 727.233 901.041 727.9 897.108 727.9Z" fill="white"/>
<path d="M994.614 686.5V694.2H954.714V686.5H994.614Z" fill="white"/>
<path d="M1047.25 657.3V701.4C1047.25 707.6 1048.75 712.2 1051.75 715.2C1054.82 718.2 1059.05 719.7 1064.45 719.7C1069.79 719.7 1073.95 718.2 1076.95 715.2C1080.02 712.2 1081.55 707.6 1081.55 701.4V657.3H1090.65V701.3C1090.65 707.1 1089.49 712 1087.15 716C1084.82 719.933 1081.65 722.867 1077.65 724.8C1073.72 726.733 1069.29 727.7 1064.35 727.7C1059.42 727.7 1054.95 726.733 1050.95 724.8C1047.02 722.867 1043.89 719.933 1041.55 716C1039.29 712 1038.15 707.1 1038.15 701.3V657.3H1047.25Z" fill="white"/>
<path d="M1132.53 671.2C1139.2 671.2 1144.6 673.233 1148.73 677.3C1152.87 681.3 1154.93 687.1 1154.93 694.7V727H1145.93V696C1145.93 690.533 1144.57 686.367 1141.83 683.5C1139.1 680.567 1135.37 679.1 1130.63 679.1C1125.83 679.1 1122 680.6 1119.13 683.6C1116.33 686.6 1114.93 690.967 1114.93 696.7V727H1105.83V672.2H1114.93V680C1116.73 677.2 1119.17 675.033 1122.23 673.5C1125.37 671.967 1128.8 671.2 1132.53 671.2Z" fill="white"/>
<path d="M1174.5 663.3C1172.76 663.3 1171.3 662.7 1170.1 661.5C1168.9 660.3 1168.3 658.833 1168.3 657.1C1168.3 655.367 1168.9 653.9 1170.1 652.7C1171.3 651.5 1172.76 650.9 1174.5 650.9C1176.16 650.9 1177.56 651.5 1178.7 652.7C1179.9 653.9 1180.5 655.367 1180.5 657.1C1180.5 658.833 1179.9 660.3 1178.7 661.5C1177.56 662.7 1176.16 663.3 1174.5 663.3ZM1178.9 672.2V727H1169.8V672.2H1178.9Z" fill="white"/>
<path d="M1247.21 677.5C1245.27 673.433 1242.47 670.3 1238.81 668.1C1235.14 665.833 1230.87 664.7 1226.01 664.7C1221.14 664.7 1216.74 665.833 1212.81 668.1C1208.94 670.3 1205.87 673.5 1203.61 677.7C1201.41 681.833 1200.31 686.633 1200.31 692.1C1200.31 697.567 1201.41 702.367 1203.61 706.5C1205.87 710.633 1208.94 713.833 1212.81 716.1C1216.74 718.3 1221.14 719.4 1226.01 719.4C1232.81 719.4 1238.41 717.367 1242.81 713.3C1247.21 709.233 1249.77 703.733 1250.51 696.8H1222.71V689.4H1260.21V696.4C1259.67 702.133 1257.87 707.4 1254.81 712.2C1251.74 716.933 1247.71 720.7 1242.71 723.5C1237.71 726.233 1232.14 727.6 1226.01 727.6C1219.54 727.6 1213.64 726.1 1208.31 723.1C1202.97 720.033 1198.74 715.8 1195.61 710.4C1192.54 705 1191.01 698.9 1191.01 692.1C1191.01 685.3 1192.54 679.2 1195.61 673.8C1198.74 668.333 1202.97 664.1 1208.31 661.1C1213.64 658.033 1219.54 656.5 1226.01 656.5C1233.41 656.5 1239.94 658.333 1245.61 662C1251.34 665.667 1255.51 670.833 1258.11 677.5H1247.21Z" fill="white"/>
<path d="M1322.24 697.5C1322.24 699.233 1322.14 701.067 1321.94 703H1278.14C1278.47 708.4 1280.31 712.633 1283.64 715.7C1287.04 718.7 1291.14 720.2 1295.94 720.2C1299.87 720.2 1303.14 719.3 1305.74 717.5C1308.41 715.633 1310.27 713.167 1311.34 710.1H1321.14C1319.67 715.367 1316.74 719.667 1312.34 723C1307.94 726.267 1302.47 727.9 1295.94 727.9C1290.74 727.9 1286.07 726.733 1281.94 724.4C1277.87 722.067 1274.67 718.767 1272.34 714.5C1270.01 710.167 1268.84 705.167 1268.84 699.5C1268.84 693.833 1269.97 688.867 1272.24 684.6C1274.51 680.333 1277.67 677.067 1281.74 674.8C1285.87 672.467 1290.61 671.3 1295.94 671.3C1301.14 671.3 1305.74 672.433 1309.74 674.7C1313.74 676.967 1316.81 680.1 1318.94 684.1C1321.14 688.033 1322.24 692.5 1322.24 697.5ZM1312.84 695.6C1312.84 692.133 1312.07 689.167 1310.54 686.7C1309.01 684.167 1306.91 682.267 1304.24 681C1301.64 679.667 1298.74 679 1295.54 679C1290.94 679 1287.01 680.467 1283.74 683.4C1280.54 686.333 1278.71 690.4 1278.24 695.6H1312.84Z" fill="white"/>
<defs>
<linearGradient id="paint0_linear_209_8" x1="204.5" y1="58.5" x2="1398.5" y2="1097" gradientUnits="userSpaceOnUse">
<stop stop-color="#10131C"/>
<stop offset="1" stop-color="#151B34"/>
</linearGradient>
</defs>
</svg>
