<svg width="1920" height="1080" viewBox="0 0 1920 1080" fill="none" xmlns="http://www.w3.org/2000/svg">
<path d="M1920 0H0V1080H1920V0Z" fill="#FF0000"/>
<path d="M914.802 292H914.772L914.742 292C887.208 292.332 860.964 297.81 836.052 308.439C811.212 319.037 789.621 333.309 771.331 351.266C753.006 369.258 738.551 390.883 727.944 416.074C717.319 441.308 712 467.564 712 494.802C712 522.987 717.309 549.424 727.963 574.061C738.572 598.594 753.016 620.023 771.298 638.306C789.592 656.599 811.193 671.044 836.052 681.651C860.983 692.288 887.248 697.604 914.802 697.604C951.093 697.604 985.365 688.128 1017.54 669.25L1121.67 773.382C1131.1 783.156 1143.12 788 1157.32 788C1171.53 788 1183.68 783.148 1193.41 773.414C1203.12 763.706 1208 751.732 1208 737.802C1208 723.875 1203.13 711.776 1193.48 701.769L1193.44 701.733L1193.41 701.696L1088.79 597.554C1107.97 565.379 1117.6 531.103 1117.6 494.802C1117.6 467.88 1112.28 441.633 1101.67 416.095C1091.06 390.572 1076.6 368.924 1058.24 351.234C1039.97 333.624 1018.4 319.373 993.604 308.461C968.661 297.486 942.378 292 914.802 292ZM800.534 561.291C788.681 541.014 782.75 518.884 782.75 494.802C782.75 471.056 788.674 449.086 800.534 428.799C812.413 408.481 828.481 392.413 848.799 380.534C869.086 368.674 891.056 362.75 914.802 362.75C931.904 362.75 948.898 366.322 965.817 373.528C982.786 380.756 996.79 390.123 1007.93 401.575C1019.16 413.115 1028.57 427.048 1036.14 443.437C1043.59 459.593 1047.17 476.666 1046.85 494.716C1046.54 512.886 1042.94 530.072 1036.07 546.314C1029.18 562.599 1019.81 576.633 1007.98 588.466C996.147 600.3 982.113 609.667 965.828 616.557C949.612 623.418 932.628 626.85 914.835 626.854C891.054 626.536 869.053 620.598 848.749 609.041C828.459 597.49 812.406 581.597 800.534 561.291Z" fill="#0000FF" stroke="#00FF00" stroke-width="10"/>
</svg>
